<svg width="14" height="8" viewBox="0 0 14 8" fill="none" xmlns="http://www.w3.org/2000/svg">
<path d="M7.00059 1.86395L1.18259 7.52528C1.1357 7.5719 1.08004 7.60874 1.01882 7.6337C0.957597 7.65866 0.892035 7.67122 0.825924 7.67068C0.759814 7.67013 0.69447 7.65647 0.633672 7.6305C0.572873 7.60453 0.517829 7.56676 0.471724 7.51938C0.425619 7.472 0.389369 7.41594 0.365071 7.35445C0.340773 7.29297 0.32891 7.22727 0.330169 7.16117C0.331427 7.09507 0.345782 7.02988 0.372403 6.96936C0.399023 6.90885 0.437381 6.85421 0.485256 6.80862L6.65192 0.808619C6.74527 0.717804 6.87036 0.666992 7.00059 0.666992C7.13082 0.666992 7.25591 0.717804 7.34926 0.808619L13.5159 6.80862C13.5638 6.85421 13.6022 6.90885 13.6288 6.96936C13.6554 7.02988 13.6698 7.09507 13.671 7.16117C13.6723 7.22727 13.6604 7.29297 13.6361 7.35445C13.6118 7.41594 13.5756 7.472 13.5295 7.51938C13.4834 7.56676 13.4283 7.60453 13.3675 7.6305C13.3067 7.65647 13.2414 7.67013 13.1753 7.67068C13.1091 7.67122 13.0436 7.65866 12.9824 7.6337C12.9211 7.60874 12.8655 7.5719 12.8186 7.52528L7.00059 1.86395Z" fill="black"/>
</svg>
