<svg width="14" height="8" viewBox="0 0 14 8" fill="none" xmlns="http://www.w3.org/2000/svg">
<path d="M6.99941 6.13605L12.8174 0.474715C12.8643 0.428104 12.92 0.391255 12.9812 0.366299C13.0424 0.341343 13.108 0.328775 13.1741 0.329325C13.2402 0.329874 13.3055 0.343529 13.3663 0.369498C13.4271 0.395468 13.4822 0.433237 13.5283 0.48062C13.5744 0.528004 13.6106 0.58406 13.6349 0.645545C13.6592 0.70703 13.6711 0.772725 13.6698 0.838826C13.6686 0.904926 13.6542 0.97012 13.6276 1.03064C13.601 1.09115 13.5626 1.14579 13.5147 1.19138L7.34808 7.19138C7.25473 7.2822 7.12964 7.33301 6.99941 7.33301C6.86918 7.33301 6.74409 7.2822 6.65074 7.19138L0.484076 1.19138C0.4362 1.14579 0.397843 1.09115 0.371223 1.03064C0.344603 0.97012 0.330248 0.904926 0.328989 0.838826C0.327731 0.772725 0.339593 0.70703 0.363892 0.645545C0.388189 0.58406 0.424438 0.528004 0.470544 0.48062C0.516649 0.433237 0.571693 0.395468 0.632492 0.369498C0.69329 0.343529 0.758635 0.329874 0.824745 0.329325C0.890855 0.328775 0.956418 0.341343 1.01764 0.366299C1.07886 0.391255 1.13452 0.428104 1.18141 0.474715L6.99941 6.13605Z" fill="black"/>
</svg>
