<svg width="20" height="11" viewBox="0 0 20 11" fill="none" xmlns="http://www.w3.org/2000/svg">
<path d="M9.99991 2.29593L1.27291 10.7879C1.20258 10.8578 1.11908 10.9131 1.02725 10.9506C0.935419 10.988 0.837075 11.0068 0.73791 11.006C0.638745 11.0052 0.540728 10.9847 0.449531 10.9458C0.358334 10.9068 0.275767 10.8501 0.20661 10.7791C0.137452 10.708 0.0830768 10.6239 0.04663 10.5317C0.0101833 10.4395 -0.00761119 10.3409 -0.00572347 10.2418C-0.00383576 10.1426 0.0176966 10.0448 0.0576276 9.95405C0.0975585 9.86327 0.155095 9.78132 0.226908 9.71293L9.47691 0.712928C9.61692 0.576706 9.80456 0.500488 9.99991 0.500488C10.1953 0.500488 10.3829 0.576706 10.5229 0.712928L19.7729 9.71293C19.8447 9.78132 19.9023 9.86327 19.9422 9.95405C19.9821 10.0448 20.0037 10.1426 20.0055 10.2418C20.0074 10.3409 19.9896 10.4395 19.9532 10.5317C19.9167 10.6239 19.8624 10.708 19.7932 10.7791C19.7241 10.8501 19.6415 10.9068 19.5503 10.9458C19.4591 10.9847 19.3611 11.0052 19.2619 11.006C19.1627 11.0068 19.0644 10.988 18.9726 10.9506C18.8807 10.9131 18.7972 10.8578 18.7269 10.7879L9.99991 2.29593Z" fill="black"/>
</svg>
