<svg width="24" height="24" viewBox="0 0 24 24" fill="none" xmlns="http://www.w3.org/2000/svg">
<path d="M12.0001 19.7041L20.7271 11.2121C20.7974 11.1422 20.8809 11.0869 20.9727 11.0494C21.0646 11.012 21.1629 10.9932 21.2621 10.994C21.3613 10.9948 21.4593 11.0153 21.5505 11.0542C21.6417 11.0932 21.7242 11.1499 21.7934 11.2209C21.8625 11.292 21.9169 11.3761 21.9534 11.4683C21.9898 11.5605 22.0076 11.6591 22.0057 11.7582C22.0038 11.8574 21.9823 11.9552 21.9424 12.046C21.9024 12.1367 21.8449 12.2187 21.7731 12.2871L12.5231 21.2871C12.3831 21.4233 12.1954 21.4995 12.0001 21.4995C11.8047 21.4995 11.6171 21.4233 11.4771 21.2871L2.22709 12.2871C2.15528 12.2187 2.09774 12.1367 2.05781 12.046C2.01788 11.9552 1.99635 11.8574 1.99446 11.7582C1.99257 11.6591 2.01037 11.5605 2.04681 11.4683C2.08326 11.3761 2.13764 11.292 2.20679 11.2209C2.27595 11.1499 2.35852 11.0932 2.44971 11.0542C2.54091 11.0153 2.63893 10.9948 2.73809 10.994C2.83726 10.9932 2.9356 11.012 3.02744 11.0494C3.11927 11.0869 3.20276 11.1422 3.27309 11.2121L12.0001 19.7041Z" fill="black"/>
</svg>
