<svg width="24" height="24" viewBox="0 0 24 24" fill="none" xmlns="http://www.w3.org/2000/svg">
<path d="M11.9999 4.29593L3.27291 12.7879C3.20258 12.8578 3.11908 12.9131 3.02725 12.9506C2.93542 12.988 2.83708 13.0068 2.73791 13.006C2.63875 13.0052 2.54073 12.9847 2.44953 12.9458C2.35833 12.9068 2.27577 12.8501 2.20661 12.7791C2.13745 12.708 2.08308 12.6239 2.04663 12.5317C2.01018 12.4395 1.99239 12.3409 1.99428 12.2418C1.99616 12.1426 2.0177 12.0448 2.05763 11.954C2.09756 11.8633 2.1551 11.7813 2.22691 11.7129L11.4769 2.71293C11.6169 2.57671 11.8046 2.50049 11.9999 2.50049C12.1953 2.50049 12.3829 2.57671 12.5229 2.71293L21.7729 11.7129C21.8447 11.7813 21.9023 11.8633 21.9422 11.954C21.9821 12.0448 22.0037 12.1426 22.0055 12.2418C22.0074 12.3409 21.9896 12.4395 21.9532 12.5317C21.9167 12.6239 21.8624 12.708 21.7932 12.7791C21.7241 12.8501 21.6415 12.9068 21.5503 12.9458C21.4591 12.9847 21.3611 13.0052 21.2619 13.006C21.1627 13.0068 21.0644 12.988 20.9726 12.9506C20.8807 12.9131 20.7972 12.8578 20.7269 12.7879L11.9999 4.29593Z" fill="black"/>
</svg>
