<svg width="52" height="51" viewBox="0 0 52 51" fill="none" xmlns="http://www.w3.org/2000/svg">
<path d="M42.9797 6.99191C44.3624 8.48106 46.3125 9.11926 47.128 10.8921C46.8444 11.4593 46.3834 11.4948 45.887 11.5657C44.2561 11.7785 42.6251 11.9912 40.9587 12.2039C40.7105 12.2394 40.4623 12.3457 40.0723 12.4521C40.6041 12.984 41.0296 13.4094 41.4551 13.8349C42.3415 14.7567 42.2351 15.3595 41.1005 15.9622C40.3914 16.3523 39.6468 16.6359 38.9022 16.955C38.5477 17.1323 38.1931 17.3096 37.6258 17.5578C38.0868 17.6996 38.3349 17.8059 38.5831 17.8769C41.8451 18.7633 45.107 19.6142 48.369 20.536C49.0072 20.7133 49.6099 20.997 50.2127 21.2452C50.4963 21.3515 50.7799 21.4934 50.9572 21.7061C51.1345 21.8834 51.2763 22.2379 51.2409 22.4507C51.2054 22.6279 50.8863 22.8052 50.6736 22.8407C49.2908 23.2661 47.9435 23.6562 46.5607 24.0462C46.4189 24.0816 46.3125 24.1525 45.9934 24.2944C46.5607 24.7908 47.0216 25.2517 47.4826 25.6771C47.9435 26.1026 48.4399 26.4572 48.9008 26.8826C49.2908 27.2372 49.8226 27.5918 49.6099 28.23C49.3972 28.8682 48.7944 28.9036 48.2271 28.9391C46.8444 29.01 45.4261 29.0455 44.0433 29.1164C43.4406 29.1518 42.8024 29.1164 42.0224 29.1164C42.2705 29.4709 42.3769 29.6837 42.5187 29.8609C43.476 31.0664 44.4334 32.2719 45.3907 33.5129C46.2771 34.6475 46.1707 35.0375 44.8943 35.7112C44.717 35.8175 44.5043 35.8884 44.2915 35.9948C42.3769 37.0585 40.5332 37.2358 38.4768 36.0657C36.8103 35.1084 34.8957 34.5766 33.0875 33.832C32.8747 33.7256 32.6266 33.6902 32.2365 33.7611C32.5911 34.2575 32.9457 34.7538 33.2648 35.2502C33.6902 35.8884 34.1866 36.4912 34.5057 37.2003C34.8957 37.9803 34.6121 38.3703 33.7257 38.4058C33.1584 38.4413 32.6266 38.4058 32.0593 38.4058C31.5629 38.4058 31.0665 38.4058 30.251 38.4058C30.7119 38.9022 30.9956 39.2213 31.2792 39.5404C31.8111 40.1077 32.3784 40.6395 32.9102 41.2068C33.1229 41.455 33.3711 41.7032 33.5129 41.9868C34.0093 42.8378 33.7611 43.2987 32.7329 43.2987C31.5629 43.3342 30.3928 43.3342 29.1873 43.3342C28.9037 43.3342 28.62 43.3342 28.1591 43.3342C28.5137 44.1497 28.8328 44.8942 29.1164 45.6388C29.6128 46.8798 29.6128 47.057 28.5137 47.8725C27.5918 48.5462 26.6345 49.1489 25.6772 49.7871C25.1808 50.1417 24.6844 50.1062 24.1526 49.7871C20.3588 47.518 16.9905 44.7879 14.2959 41.2423C13.1613 39.7531 12.2394 38.1222 11.5658 36.3494C10.9985 34.7893 10.8212 33.1938 11.0339 31.5628C11.1758 30.251 11.6012 29.0455 12.4167 28.0172C12.8067 27.5209 13.1613 27.0245 13.5513 26.5281C11.4594 25.7481 9.40296 25.0035 7.31107 24.2589C6.74377 24.7198 6.67286 25.7481 5.60918 26.0317C5.14826 25.2162 4.65188 24.4007 4.19095 23.5853C2.91454 21.3161 1.99269 18.9405 1.35448 16.4232C1.14175 15.6431 0.999922 14.8277 1.35448 14.0476C1.42539 13.9058 1.42539 13.6931 1.38994 13.5158C1.21266 12.3103 1.60267 11.2821 2.31179 10.3248C2.55998 9.9702 2.77272 9.58019 2.91454 9.15472C3.23364 8.1265 2.87908 7.16919 1.95723 6.56644C1.63813 6.3537 1.35448 6.10551 0.893555 5.75095C1.28357 5.57368 1.4963 5.3964 1.70904 5.36094C3.55274 5.18366 5.21917 6.28279 5.6801 8.16195C5.89283 9.04835 5.85738 9.9702 5.92829 10.8921C5.96374 11.1048 5.92829 11.3175 5.92829 11.743C6.21193 11.4239 6.38921 11.2821 6.53104 11.1048C7.13379 10.0411 7.34652 8.90653 7.09833 7.70103C6.99196 7.13373 6.8856 6.53098 6.8856 5.96369C6.8856 5.53822 7.06287 5.07729 7.16924 4.61637C9.19023 5.68004 9.89934 6.99191 9.58024 8.94198C9.47387 9.47382 9.36751 10.0057 9.40296 10.6084C9.65115 10.1829 9.9348 9.75747 10.183 9.332C10.3248 9.08381 10.4666 8.83561 10.6439 8.58742C10.9276 8.23287 11.2467 7.87831 11.743 8.05559C12.2394 8.23287 12.3103 8.69379 12.3103 9.15472C12.2394 10.8211 11.6012 12.2039 10.3603 13.3385C10.1121 13.5512 9.86389 13.764 9.65115 13.9413C10.0766 14.1895 10.573 14.3667 10.7857 14.7213C10.9985 15.1113 11.0339 15.6431 10.9985 16.1041C10.963 16.6004 10.7503 17.0968 10.6085 17.5932C10.5021 17.9123 10.3603 18.196 10.3248 18.5505C13.4449 16.8486 16.3169 14.6504 20.0043 14.3667C20.0752 14.0476 20.1815 13.7994 20.217 13.5512C20.9261 9.6511 22.9116 6.67281 26.1027 4.47454C29.8965 1.85081 34.1866 0.82259 38.7604 0.999869C41.5969 1.10624 44.3624 1.70899 47.0925 2.59538C47.7662 2.80812 48.5462 2.94994 48.5817 3.83634C48.6171 4.72273 47.8017 4.79365 47.2344 5.07729C45.8516 5.7155 44.4688 6.31825 42.9797 6.99191ZM44.8588 4.15544C44.8588 4.08453 44.8588 4.04907 44.8588 3.97816C43.8306 3.80088 42.7669 3.6236 41.7387 3.44632C38.9022 2.94994 36.0303 2.80812 33.1938 3.37541C27.8755 4.43909 24.1171 7.34647 22.1671 12.4876C21.848 13.3031 21.6352 14.154 21.7061 15.0758C21.7771 15.8913 21.458 16.2104 20.607 16.2459C20.3588 16.2459 20.0752 16.2104 19.827 16.2459C18.2315 16.3168 16.7778 16.8132 15.4305 17.6287C16.175 18.7633 17.7351 19.0469 18.0187 20.6424C16.9196 20.9261 15.9268 20.9615 14.8986 20.7133C14.0477 20.5006 13.1967 20.2524 12.8422 19.2951C10.9276 20.3942 9.11931 21.4579 7.24015 22.557C7.38198 22.6989 7.45289 22.7698 7.55926 22.8052C9.43842 23.5498 11.3176 24.2944 13.1967 25.0035C13.8349 25.2517 14.5441 25.429 15.1823 25.7126C15.9268 26.0317 16.0332 26.4217 15.6432 27.0954C15.395 27.5209 15.0404 27.9463 14.7213 28.3363C13.2322 30.251 12.3813 32.3783 13.0549 34.8248C13.3386 35.9239 13.7995 36.9876 14.3313 37.9803C15.1114 39.5404 16.2459 40.8877 17.5224 42.0578C19.4015 43.7951 21.3516 45.497 23.3017 47.1634C23.8335 47.6598 24.4362 48.0498 25.0745 48.5462C26.1027 47.8371 27.06 47.1989 28.0173 46.5606C27.9109 46.3125 27.84 46.1352 27.7691 45.9579C27.3791 45.0715 26.9536 44.2206 26.6345 43.3342C26.3509 42.5541 26.6345 42.1287 27.45 42.0223C28.1591 41.9159 28.9037 41.9159 29.6483 41.8805C30.1092 41.845 30.5701 41.845 31.2083 41.8096C30.7828 41.3486 30.5347 41.0295 30.251 40.7459C29.6837 40.1431 29.081 39.5049 28.5137 38.9022C28.1946 38.5476 27.8046 38.1576 28.0527 37.6258C28.2655 37.1294 28.7973 37.2003 29.2228 37.1648C29.6128 37.1294 30.0383 37.1648 30.4283 37.1294C31.031 37.0939 31.6338 37.023 32.4138 36.9167C31.8111 35.9948 31.3147 35.2502 30.8183 34.4702C30.5701 34.0802 30.2865 33.6547 30.0737 33.2292C29.861 32.8038 29.861 32.3074 30.251 32.0237C30.4992 31.8465 30.9601 31.811 31.2792 31.8819C32.0947 32.0947 32.9102 32.3074 33.6902 32.6265C35.853 33.4774 37.9804 34.3638 40.1077 35.2502C40.3914 35.3566 40.7814 35.5693 41.0296 35.4984C42.0578 35.2148 43.086 34.7893 44.2206 34.3993C43.1215 32.9101 42.1287 31.5628 41.136 30.2155C40.8878 29.8964 40.675 29.5418 40.4623 29.2227C40.2141 28.7973 40.3559 28.4073 40.8169 28.23C41.3132 28.0881 41.8096 27.9818 42.306 27.9463C43.1924 27.8754 44.0788 27.84 44.9652 27.8045C45.6389 27.769 46.3125 27.6981 47.1635 27.6272C46.0289 26.5635 45.0716 25.6417 44.1143 24.7553C43.4051 24.0816 43.5115 23.4789 44.4688 23.1598C44.6815 23.0889 44.8943 23.0889 45.107 23.018C45.958 22.7343 46.8089 22.4507 47.6598 22.167C47.3407 21.8834 47.0216 21.7415 46.738 21.6706C44.717 21.1388 42.6606 20.6779 40.6396 20.1106C39.2568 19.7206 37.874 19.3305 36.5267 18.8342C35.3921 18.4087 35.2857 17.5578 36.314 16.8841C37.2358 16.2813 38.2286 15.785 39.1859 15.2531C39.505 15.0758 39.8241 14.9695 40.1786 14.7922C39.6114 14.0476 39.0795 13.4449 38.654 12.7712C38.2286 12.0976 38.3704 11.4948 39.0441 11.0693C39.3632 10.8566 39.7532 10.6793 40.1432 10.6084C41.2069 10.4311 42.2351 10.3248 43.2988 10.1829C43.5115 10.1475 43.7597 10.112 44.1497 10.0057C43.5824 9.58019 43.1569 9.29654 42.7669 8.97744C42.1642 8.4456 41.526 7.94922 40.9587 7.38192C40.4268 6.85009 40.4978 6.46007 41.065 5.96369C41.3842 5.68004 41.8096 5.46731 42.1996 5.29003C43.1569 4.90001 44.0079 4.54546 44.8588 4.15544ZM6.99196 12.4167C7.02742 12.4167 6.95651 12.4167 6.8856 12.4521C5.75101 13.1967 5.1128 12.913 5.00643 11.5657C4.97098 11.3175 5.00643 11.0339 4.97098 10.7857C4.90007 10.0766 4.86461 9.40291 4.75824 8.72925C4.68733 8.30378 4.43914 7.91376 4.26186 7.52375C4.19095 7.52375 4.12004 7.5592 4.04913 7.5592C4.4746 9.01289 3.97821 10.2184 3.23364 11.4239C2.98545 11.8139 2.80817 12.2748 2.7018 12.7358C2.59544 13.1258 2.66635 13.5158 3.05636 13.7994C4.12004 14.6149 4.93552 15.6431 5.60918 16.7777C5.78646 17.0614 5.9992 17.345 6.21193 17.6641C6.70832 16.9196 7.09833 16.3168 7.48834 15.7141C7.59471 15.5722 7.63017 15.3949 7.66562 15.2177C7.80745 14.6149 7.91381 14.0122 8.02018 13.5158C7.77199 13.1612 7.41743 12.8421 6.99196 12.4167ZM8.30383 6.63735C8.23292 6.63735 8.12655 6.63735 8.05564 6.63735C8.12655 7.27556 8.23292 7.94922 8.23292 8.58742C8.23292 9.26109 8.16201 9.93475 8.09109 10.6084C8.62293 9.26109 9.11931 7.94922 8.30383 6.63735ZM9.54478 12.3457C10.3603 11.8848 10.8212 11.1757 10.8567 10.2184C10.3957 10.9275 9.97025 11.6366 9.54478 12.3457ZM15.7141 19.6142C15.7141 19.6851 15.7141 19.7206 15.7141 19.7915C15.8914 19.7915 16.0687 19.7915 16.2814 19.7915C16.2814 19.7206 16.2814 19.6851 16.2814 19.6142C16.0687 19.6142 15.8914 19.6142 15.7141 19.6142Z" fill="#222222"/>
</svg>
