<svg width="40" height="40" viewBox="0 0 40 40" fill="none" xmlns="http://www.w3.org/2000/svg">
<circle cx="20" cy="20" r="19.5" fill="white" stroke="#191919"/>
<path d="M27.704 19.9999L19.212 11.2729C19.1421 11.2026 19.0868 11.1191 19.0494 11.0273C19.012 10.9354 18.9931 10.8371 18.9939 10.7379C18.9947 10.6387 19.0152 10.5407 19.0542 10.4495C19.0931 10.3583 19.1498 10.2758 19.2209 10.2066C19.2919 10.1375 19.376 10.0831 19.4683 10.0466C19.5605 10.0102 19.659 9.99239 19.7582 9.99428C19.8573 9.99616 19.9551 10.0177 20.0459 10.0576C20.1367 10.0976 20.2186 10.1551 20.287 10.2269L29.287 19.4769C29.4232 19.6169 29.4995 19.8046 29.4995 19.9999C29.4995 20.1953 29.4232 20.3829 29.287 20.5229L20.287 29.7729C20.2186 29.8447 20.1367 29.9023 20.0459 29.9422C19.9551 29.9821 19.8573 30.0037 19.7582 30.0055C19.659 30.0074 19.5605 29.9896 19.4683 29.9532C19.376 29.9167 19.2919 29.8624 19.2209 29.7932C19.1498 29.7241 19.0931 29.6415 19.0542 29.5503C19.0152 29.4591 18.9947 29.3611 18.9939 29.2619C18.9931 29.1627 19.012 29.0644 19.0494 28.9726C19.0868 28.8807 19.1421 28.7972 19.212 28.7269L27.704 19.9999Z" fill="#191919"/>
</svg>
