<svg width="40" height="40" viewBox="0 0 40 40" fill="none" xmlns="http://www.w3.org/2000/svg">
<circle cx="20" cy="20" r="19.5" fill="white" stroke="#A3A3A3"/>
<path d="M12.2965 20.0929L20.8934 28.7166C20.9642 28.7861 21.0205 28.8689 21.059 28.9603C21.0975 29.0516 21.1176 29.1497 21.118 29.2489C21.1183 29.3481 21.099 29.4463 21.0612 29.538C21.0233 29.6297 20.9677 29.7129 20.8975 29.7829C20.8272 29.8529 20.7438 29.9083 20.652 29.9459C20.5602 29.9834 20.4619 30.0024 20.3628 30.0017C20.2636 30.001 20.1655 29.9807 20.0743 29.9419C19.983 29.903 19.9004 29.8465 19.8311 29.7755L10.72 20.635C10.5821 20.4966 10.5036 20.3099 10.5012 20.1146C10.4989 19.9193 10.5728 19.7307 10.7073 19.5891L19.5948 10.2309C19.6624 10.1583 19.7436 10.0998 19.8339 10.0588C19.9242 10.0177 20.0217 9.99501 20.1208 9.99193C20.2199 9.98884 20.3187 10.0054 20.4114 10.0408C20.504 10.0761 20.5888 10.1295 20.6607 10.1977C20.7326 10.266 20.7902 10.3479 20.8303 10.4386C20.8703 10.5294 20.892 10.6271 20.894 10.7263C20.896 10.8254 20.8784 10.924 20.8421 11.0163C20.8057 11.1085 20.7515 11.1927 20.6824 11.2639L12.2965 20.0929Z" fill="#A3A3A3"/>
</svg>
