<svg width="100" height="100" viewBox="0 0 100 100" xmlns="http://www.w3.org/2000/svg">
    <rect width="100" height="100" fill="#ffffff" />
    <path d="M58.3985 29.8155C59.7056 22.6957 68.2094 13 68.2094 13L18.2963 25.4094C18.2963 25.4094 30.1441 30.0776 34.4402 35.772C40.9895 44.4528 35.7292 63.126 35.7292 63.126C35.7292 63.126 30.8127 75.5003 35.4604 80.8039C37.1819 82.7683 39.7225 82.6272 41.115 84.7892C42.238 86.5326 42.3774 89.8665 42.3774 89.8665L71.5266 82.6194C71.5266 82.6194 72.9538 78.8431 74.2573 76.5494C75.7912 73.8503 78.0483 72.8451 78.9846 69.9829C81.2463 63.0687 73.5377 56.6014 68.8714 54.8862C64.2052 53.1711 56.4413 40.4765 58.3985 29.8155Z" fill="#ffffff" stroke="#0F0FFF" stroke-width="3"/>
</svg>
