<?xml version="1.0" standalone="no"?>
<!DOCTYPE svg PUBLIC "-//W3C//DTD SVG 20010904//EN"
 "http://www.w3.org/TR/2001/REC-SVG-20010904/DTD/svg10.dtd">
<svg version="1.0" xmlns="http://www.w3.org/2000/svg"
 width="684.000000pt" height="333.000000pt" viewBox="0 0 684.000000 333.000000"
 preserveAspectRatio="xMidYMid meet">

<g transform="translate(0.000000,333.000000) scale(0.100000,-0.100000)"
fill="#000000" stroke="none">
<path d="M1886 3068 c-9 -12 -16 -27 -16 -32 0 -9 -99 -146 -105 -146 -2 0
-20 9 -40 21 -45 27 -61 20 -63 -25 l-1 -36 100 0 c98 0 100 0 109 -26 6 -14
10 -29 10 -34 0 -6 -117 -11 -277 -12 l-278 -3 -3 -737 -2 -738 695 0 695 0 1
168 c1 265 -9 238 164 460 82 106 152 187 155 182 4 -6 10 35 13 92 6 107 31
202 51 195 7 -3 10 -26 9 -61 -1 -33 2 -54 8 -51 5 4 9 12 9 18 0 7 9 27 21
46 30 50 46 27 25 -35 -22 -65 -21 -70 15 -40 49 42 67 29 30 -22 -31 -45 -34
-70 -16 -119 17 -44 17 -46 -3 -71 -12 -15 -49 -74 -83 -131 l-61 -104 15 -71
c9 -39 13 -74 9 -77 -16 -15 -230 -79 -261 -79 -24 0 -44 8 -63 27 -15 15 -28
22 -28 16 0 -15 33 -41 68 -54 27 -9 48 -5 161 34 71 24 134 40 138 36 5 -5
39 1 76 13 36 12 69 20 71 17 4 -4 36 -228 36 -251 0 -4 14 -8 31 -8 22 0 30
-4 26 -13 -3 -8 -8 -39 -12 -70 -4 -31 -12 -63 -19 -70 -6 -8 -96 -47 -201
-88 -104 -40 -197 -78 -205 -85 -8 -6 -64 -29 -123 -49 -60 -21 -111 -43 -113
-50 -3 -6 3 -31 12 -55 30 -83 154 -442 154 -446 0 -2 -87 -4 -194 -4 l-195 0
-4 43 -4 42 -1 -42 -2 -43 -81 0 -82 0 7 137 c4 76 9 139 11 141 2 2 21 -6 43
-17 23 -12 48 -18 56 -15 24 9 30 44 12 62 -14 14 -22 15 -62 4 -26 -7 -48
-11 -50 -9 -2 2 -1 27 3 55 l6 52 68 0 c59 0 70 3 83 22 17 24 21 65 8 84 -15
24 -52 32 -169 39 -122 7 -122 7 -147 -18 -31 -31 -33 -56 -6 -89 16 -21 30
-26 80 -30 33 -2 62 -7 65 -10 3 -3 3 -30 -1 -61 l-7 -55 -31 19 c-40 24 -73
24 -86 0 -23 -44 13 -68 67 -46 19 8 39 15 44 15 9 0 3 -210 -7 -257 -4 -22
-8 -23 -119 -23 l-115 0 0 28 c0 15 -5 78 -10 141 -9 114 -9 114 15 137 30 28
32 55 5 79 -26 23 -26 25 10 70 23 29 30 47 29 79 l-2 41 -6 -41 c-4 -23 -20
-59 -36 -80 l-30 -39 -8 54 c-10 74 -21 81 -12 7 7 -56 7 -58 -13 -47 -35 19
-72 71 -72 102 0 37 20 76 54 108 l26 25 32 -30 c18 -16 38 -36 45 -44 7 -9
12 -10 13 -4 0 7 -18 28 -41 49 -38 34 -40 40 -35 73 5 25 4 32 -3 23 -7 -11
-10 -10 -14 5 -4 16 -5 17 -6 2 -1 -20 -21 -25 -21 -6 0 6 -3 9 -6 6 -3 -4 1
-19 9 -34 14 -28 14 -30 -24 -78 -58 -73 -53 -131 18 -190 l33 -27 -20 -27
c-24 -32 -18 -64 15 -82 24 -13 26 -19 41 -217 l7 -83 -127 0 c-139 0 -126 -7
-140 70 -3 14 -3 4 -2 -22 l4 -48 -120 0 -120 0 6 38 c3 20 8 61 12 89 4 35
11 53 20 53 15 0 34 30 34 54 0 9 -11 23 -24 31 -50 33 -97 -26 -56 -70 20
-21 20 -27 10 -106 -5 -46 -10 -85 -10 -86 0 -2 -31 -3 -70 -3 -69 0 -70 0
-71 28 0 15 -4 53 -8 85 l-7 58 36 -6 c40 -7 67 12 56 40 -9 25 -36 29 -66 12
l-28 -17 -7 37 c-7 39 3 53 42 53 24 0 53 24 53 44 0 7 -8 20 -18 29 -16 15
-29 16 -97 7 -83 -11 -97 -19 -93 -60 3 -22 8 -25 49 -28 45 -3 47 -4 54 -39
8 -43 5 -46 -29 -34 -41 16 -74 -7 -60 -43 9 -23 33 -27 64 -11 28 14 29 14
34 -13 3 -15 8 -53 12 -84 l6 -58 -89 0 -90 0 -6 73 c-4 39 -10 138 -13 219
l-7 148 38 61 c20 33 35 62 32 65 -2 3 -20 -19 -38 -48 l-34 -53 -6 65 -6 65
-2 -65 -2 -65 -40 43 c-57 60 -58 47 -2 -17 l46 -53 8 -156 c4 -87 10 -185 13
-219 l5 -62 -62 -4 c-34 -2 872 -3 2013 -3 1141 0 1984 2 1872 3 -187 3 -203
5 -198 21 3 9 10 36 15 58 8 29 18 43 32 47 25 7 23 44 -3 61 -28 17 -55 -15
-40 -48 11 -24 0 -90 -18 -109 -11 -12 -31 51 -24 77 8 32 -21 55 -42 34 -16
-16 -9 -48 11 -48 7 0 18 -12 23 -27 5 -16 13 -36 17 -45 6 -16 0 -18 -69 -18
l-76 0 0 34 c0 33 34 383 44 455 3 19 2 30 -3 25 -5 -5 -18 -115 -30 -244 -13
-129 -25 -243 -27 -252 -4 -14 -16 -18 -53 -18 l-48 0 -11 67 c-11 63 -10 69
19 136 16 39 28 75 26 80 -2 6 -14 -17 -27 -52 -15 -42 -26 -59 -33 -52 -7 7
-2 32 16 78 33 85 35 108 2 33 -18 -42 -25 -51 -30 -37 -4 10 2 39 14 69 25
60 20 79 -5 22 -22 -50 -31 -21 -10 30 8 20 11 36 5 36 -5 0 -9 -7 -9 -15 0
-29 -19 -15 -23 18 -4 30 -4 29 -6 -8 -1 -32 -4 -37 -12 -22 -5 9 -15 17 -21
17 -7 0 0 -13 15 -28 15 -15 27 -37 27 -48 0 -16 -4 -14 -25 11 -13 17 -24 26
-24 20 0 -5 13 -26 29 -45 17 -19 30 -43 30 -55 -1 -16 -8 -12 -41 25 -48 53
-41 34 11 -30 36 -43 56 -80 44 -80 -3 0 -26 21 -51 48 -49 51 -41 34 20 -39
29 -35 40 -60 47 -105 6 -32 10 -62 10 -66 0 -5 -23 -8 -50 -8 -44 0 -52 3
-60 24 -14 39 -49 56 -111 56 -41 0 -60 5 -72 18 -22 24 -21 68 2 100 10 15
76 134 146 265 122 227 128 241 128 296 0 68 -29 138 -75 176 -17 14 -172 96
-344 182 l-314 156 0 35 c0 50 51 97 132 122 76 23 103 41 124 81 15 30 12 83
-6 94 -5 3 -5 -9 1 -27 7 -25 5 -40 -9 -68 -16 -30 -30 -39 -93 -62 -41 -15
-77 -27 -81 -27 -5 -1 -8 13 -8 30 0 50 -29 97 -74 123 -22 13 -79 44 -126 68
-85 44 -85 44 -88 86 -2 33 -7 42 -21 42 -10 0 -38 18 -62 40 -39 36 -42 40
-21 40 13 0 32 -5 44 -11 33 -17 32 -2 -1 39 -53 68 -31 88 29 27 18 -19 35
-33 38 -31 2 2 -6 22 -17 45 -34 66 -25 93 16 49 31 -35 43 -63 44 -105 l1
-38 11 49 c7 27 17 51 23 53 11 4 24 -48 24 -99 0 -25 9 -33 81 -69 45 -22 83
-38 85 -36 2 2 -31 22 -73 44 l-78 40 -7 59 c-9 67 -27 94 -48 70 -11 -14 -16
-11 -42 25 -35 49 -63 50 -63 1 0 -32 -8 -41 -20 -22 -3 6 -15 10 -26 10 -25
0 -25 -30 1 -63 27 -33 25 -38 -7 -26 -18 7 -30 6 -37 -1 -5 -5 -29 -10 -52
-10 -24 0 -52 -7 -65 -17 -26 -19 -66 -43 -72 -43 -3 0 1 18 6 40 8 28 8 43 1
50 -15 15 -39 3 -52 -23 -10 -20 -11 -20 -11 11 -1 21 -7 35 -17 39 -35 13
-63 -60 -73 -190 l-6 -78 -155 -199 -155 -199 -5 517 -5 517 -234 3 c-227 2
-233 3 -228 22 4 15 -1 22 -21 26 -43 10 -50 21 -57 85 -6 49 -9 58 -21 48
-12 -9 -11 -14 1 -32 8 -12 15 -36 15 -54 0 -23 7 -37 24 -49 15 -9 22 -21 19
-30 -4 -11 -32 -14 -139 -14 l-134 0 -10 26 c-14 35 -13 44 5 44 26 0 55 38
55 74 0 52 20 96 49 108 l26 12 -25 4 c-14 2 -33 12 -43 23 -25 27 -81 25
-101 -3z m99 -11 c14 -21 14 -28 0 -60 -8 -20 -15 -52 -15 -71 0 -42 -22 -66
-60 -66 -27 0 -28 1 -18 33 6 17 18 47 26 65 13 27 13 37 4 53 -15 24 -15 42
0 57 19 19 46 14 63 -11z m-264 -154 c42 -25 37 -43 -11 -43 -38 0 -60 20 -22
20 16 1 16 1 0 14 -38 29 -12 36 33 9z m186 -88 c9 -27 8 -35 -2 -35 -12 0
-25 29 -25 58 0 25 17 11 27 -23z m315 -27 c-7 -7 -12 -8 -12 -2 0 14 12 26
19 19 2 -3 -1 -11 -7 -17z m476 -100 l-3 -73 -682 -3 -683 -2 0 75 0 75 685 0
686 0 -3 -72z m2 -733 l0 -645 -685 0 -685 0 0 645 0 645 685 0 685 0 0 -645z
m674 372 c16 -12 13 -17 -34 -69 -30 -32 -58 -54 -65 -52 -19 8 -53 -12 -60
-36 -8 -26 10 -56 38 -64 20 -5 26 -16 36 -63 6 -31 9 -59 6 -62 -3 -3 -31
-13 -62 -22 -53 -17 -57 -17 -69 -1 -18 23 -18 21 21 71 40 50 40 52 19 114
-16 46 -15 48 10 91 14 25 26 51 26 60 0 38 95 62 134 33z m37 -53 c10 -12 10
-17 0 -23 -9 -6 -8 -11 4 -21 8 -7 15 -19 15 -26 0 -8 5 -14 10 -14 19 0 10
-18 -12 -25 l-23 -8 23 -4 c46 -9 13 -67 -53 -92 l-30 -11 31 6 c30 5 32 3 42
-37 18 -70 0 -84 -71 -54 -33 14 -36 18 -48 85 -11 63 -15 70 -35 70 -14 0
-28 9 -35 22 -10 18 -8 24 10 39 12 10 29 15 37 12 10 -4 31 12 61 46 25 28
49 51 53 51 4 0 13 -7 21 -16z m46 -16 c6 -7 15 -29 22 -48 9 -30 22 -41 86
-73 41 -21 75 -40 75 -42 0 -4 -121 -45 -134 -45 -6 0 -12 18 -13 40 -2 22
-12 59 -24 82 -12 23 -25 55 -30 70 -8 29 1 37 18 16z m27 -159 c7 -37 -6 -65
-33 -72 -30 -8 -37 27 -12 59 12 15 21 33 21 41 0 25 17 5 24 -28z m211 -33
c43 -18 75 -69 75 -120 0 -54 -42 -101 -53 -58 -3 9 -5 -11 -6 -46 l-1 -63
-68 -67 c-37 -37 -90 -96 -117 -132 -62 -80 -114 -117 -184 -130 -30 -6 -55
-9 -57 -8 -2 3 -34 225 -34 240 0 5 9 4 20 -2 11 -6 20 -7 20 -2 0 5 -12 15
-27 21 -23 9 -40 7 -96 -13 -47 -16 -70 -20 -73 -12 -2 6 -10 43 -18 81 -14
69 -14 71 9 111 23 39 30 43 123 73 l100 31 43 -20 c38 -16 47 -17 64 -6 12 8
20 25 20 40 -1 14 -1 26 0 26 0 0 45 16 100 35 115 40 114 40 160 21z m-535
-127 c0 -5 -10 -9 -21 -9 -18 0 -19 2 -9 15 12 15 30 12 30 -6z m910 -354
c165 -83 296 -155 312 -171 65 -69 77 -176 29 -265 -103 -195 -129 -243 -172
-319 -26 -47 -55 -97 -63 -113 l-15 -27 -53 25 c-29 13 -119 52 -200 86 -82
34 -148 64 -148 68 0 3 20 42 45 86 71 127 135 253 135 267 0 7 -6 4 -12 -7
-12 -19 -13 -18 -19 10 -6 29 -7 29 -8 -8 l-1 -37 -70 35 -70 35 -5 -22 c-3
-13 -14 -68 -25 -122 -11 -55 -26 -106 -32 -115 -45 -61 -77 -83 -167 -117
-53 -21 -174 -68 -270 -105 -95 -38 -179 -69 -185 -69 -7 0 -18 17 -25 38 -7
20 -42 111 -78 201 -35 90 -63 164 -61 166 2 1 53 21 113 44 241 92 270 104
281 118 7 7 17 48 23 90 6 42 12 77 14 78 1 1 24 10 51 20 56 21 120 80 186
174 25 35 65 79 89 96 54 39 16 53 401 -140z m-170 -426 c0 -4 -19 -40 -41
-80 -51 -90 -240 -461 -237 -464 2 -1 62 -26 133 -56 l130 -54 -385 -3 c-212
-1 -386 2 -388 6 -10 32 -33 45 -83 50 -63 5 -79 15 -79 48 0 27 30 50 92 69
48 15 329 122 480 183 162 66 194 103 223 262 9 47 18 91 20 98 3 8 23 3 70
-20 36 -18 65 -35 65 -39z m-1564 -119 c51 0 68 -4 84 -20 25 -25 26 -62 1
-84 -18 -16 -33 -17 -145 -11 -73 4 -133 13 -142 20 -24 17 -23 74 2 92 14 11
35 13 78 9 32 -3 88 -6 122 -6z m-316 -170 c21 -38 -22 -80 -61 -60 -19 10
-27 59 -12 73 15 15 63 7 73 -13z m-626 -16 c36 -36 6 -55 -90 -57 -69 -2 -79
0 -82 17 -6 28 12 38 80 46 35 4 66 8 70 9 4 0 14 -6 22 -15z m161 -115 c7
-20 -10 -49 -27 -49 -5 0 -6 9 -3 20 9 27 -4 25 -14 -2 l-8 -22 -13 24 c-11
21 -10 26 9 41 25 21 48 16 56 -12z m-140 -44 c0 -23 -31 -31 -55 -15 -13 9
-12 12 5 25 26 20 50 15 50 -10z m-117 -4 c10 -6 8 -12 -10 -23 -28 -18 -61
-7 -52 17 7 16 41 20 62 6z m3529 -27 c3 -8 1 -20 -6 -27 -8 -8 -11 -6 -11 9
0 15 -2 16 -10 4 -11 -18 -25 -7 -17 15 8 20 36 19 44 -1z m-97 -45 c0 -6 -4
-7 -10 -4 -5 3 -10 1 -10 -5 0 -6 -5 -8 -10 -5 -8 5 -7 11 1 21 12 14 29 10
29 -7z"/>
<path d="M1950 3035 c0 -9 5 -15 11 -13 6 2 11 8 11 13 0 5 -5 11 -11 13 -6 2
-11 -4 -11 -13z"/>
<path d="M2327 2417 c-2 -7 -11 -45 -18 -85 -12 -66 -15 -73 -34 -67 -53 17
-117 17 -159 1 -50 -19 -108 -74 -127 -118 l-12 -30 -24 51 c-42 87 -149 161
-235 161 l-28 0 0 -135 c0 -74 -3 -135 -6 -135 -3 0 -36 18 -73 40 -37 22 -71
40 -77 40 -5 0 34 -25 86 -56 52 -31 96 -57 98 -59 2 -2 -9 -15 -24 -30 l-26
-26 21 -23 c11 -12 21 -26 21 -30 0 -4 -30 -39 -67 -77 l-67 -70 33 -32 c29
-29 33 -30 42 -14 17 29 24 19 24 -36 0 -36 10 -72 29 -114 16 -35 30 -63 31
-63 1 0 45 20 98 45 53 25 99 45 102 45 2 0 2 -12 -1 -28 -4 -20 0 -33 16 -47
l22 -20 -18 32 c-18 30 -18 32 0 52 21 23 56 27 74 9 18 -18 15 -65 -5 -77
-15 -8 -15 -10 -3 -11 10 0 49 61 104 161 55 101 92 157 98 151 9 -9 88 -149
143 -255 17 -31 34 -57 38 -57 5 0 0 15 -11 33 -42 69 -164 298 -160 301 1 1
23 11 46 21 78 34 132 120 132 206 -1 45 -30 107 -68 145 l-31 31 95 52 c52
29 94 56 94 61 0 6 -150 70 -165 70 -1 0 -5 -6 -8 -13z m150 -60 c-1 -4 -39
-28 -85 -52 -58 -32 -82 -41 -82 -31 0 15 18 111 25 133 3 8 26 3 74 -15 39
-15 70 -30 68 -35z m-679 -57 c23 -10 58 -31 77 -45 39 -30 95 -134 95 -177
l0 -28 -135 0 -135 0 0 135 0 135 28 0 c15 0 46 -9 70 -20z m457 -41 c86 -24
158 -143 140 -231 -24 -117 -141 -196 -247 -168 -100 27 -163 103 -162 200 1
146 126 238 269 199z m-279 -244 c8 -31 -4 -115 -16 -115 -11 0 -200 109 -220
127 -12 11 5 13 108 13 122 0 122 0 128 -25z m-231 -65 l-19 -21 -20 20 c-19
20 -19 21 -1 41 l19 21 20 -20 c19 -20 19 -21 1 -41z m135 -20 c41 -24 77 -46
80 -48 9 -7 -59 -62 -78 -63 -9 0 -37 -2 -62 -3 -25 -1 -56 -6 -70 -10 l-25
-8 21 23 c36 41 37 49 13 75 l-22 24 23 25 c20 21 21 27 9 42 -13 17 -13 17
11 2 14 -9 59 -35 100 -59z m-171 -131 c-34 -38 -64 -69 -68 -69 -5 0 -16 9
-26 20 -20 23 -22 20 69 117 l40 43 23 -22 22 -21 -60 -68z m454 46 c21 -4 37
-11 35 -15 -11 -26 -64 -120 -68 -120 -3 0 -13 17 -22 38 -9 20 -28 62 -42 93
l-25 57 42 -23 c23 -13 59 -27 80 -30z m-53 -170 c0 -3 -9 -23 -20 -45 -20
-39 -40 -60 -40 -41 0 6 -12 17 -27 24 l-27 15 50 25 c50 27 64 31 64 22z"/>
<path d="M3649 1792 c-32 -21 -140 -132 -129 -132 4 0 42 34 84 75 42 41 75
75 74 75 -2 0 -15 -8 -29 -18z"/>
<path d="M3499 1693 c-13 -15 -12 -15 9 -4 23 12 28 21 13 21 -5 0 -15 -7 -22
-17z"/>
<path d="M2155 1000 c-13 -21 9 -28 116 -35 77 -5 114 -4 122 4 7 7 7 14 2 20
-14 13 -233 23 -240 11z m230 -23 c7 -6 -11 -8 -54 -3 -35 3 -86 6 -112 6 -27
0 -49 4 -49 9 0 12 202 1 215 -12z"/>
<path d="M1297 840 c-61 -8 -73 -13 -63 -28 3 -5 34 -5 73 0 80 9 96 14 88 28
-7 11 -12 11 -98 0z"/>
<path d="M1177 1320 c-12 -33 -17 -100 -8 -100 11 0 26 82 18 102 -4 10 -6 10
-10 -2z"/>
<path d="M1023 1306 c3 -8 9 -31 13 -50 7 -38 24 -59 24 -30 0 29 -23 94 -33
94 -5 0 -7 -6 -4 -14z"/>
<path d="M1612 1214 c-39 -27 -20 -114 26 -114 6 0 13 -4 16 -9 4 -5 -11 -7
-32 -4 -51 7 -74 -15 -70 -66 2 -26 9 -39 26 -46 22 -10 30 -25 13 -25 -5 0
-14 -13 -21 -30 -10 -25 -10 -34 4 -54 21 -33 49 -40 85 -22 l30 16 7 -58 c12
-98 32 -208 33 -182 0 14 -6 68 -14 120 -19 126 -21 120 19 113 68 -11 101 64
48 109 -26 22 -26 24 -10 41 24 23 23 62 -2 87 -24 24 -48 25 -78 4 -28 -19
-28 -7 -1 22 28 30 28 73 -1 96 -27 22 -49 23 -78 2z m72 -10 c23 -22 20 -71
-4 -84 -16 -9 -20 -8 -21 7 -1 17 -2 17 -6 1 -5 -21 -8 -21 -34 -8 -38 21 -13
100 32 100 10 0 25 -7 33 -16z m74 -120 c39 -27 19 -94 -29 -94 -23 0 -59 34
-59 55 0 18 35 55 53 55 7 0 23 -7 35 -16z m-110 -16 c21 -21 14 -66 -13 -84
-23 -15 -27 -15 -50 0 -27 18 -34 63 -13 84 15 15 61 15 76 0z m28 -115 c-1
-1 -12 0 -24 4 -21 5 -21 6 -5 18 15 11 19 11 24 -3 4 -9 6 -18 5 -19z m28 31
c13 -5 14 -9 5 -20 -13 -16 -29 -9 -29 12 0 16 2 16 24 8z m74 -30 c26 -18 28
-50 5 -76 -22 -25 -59 -23 -77 4 -21 30 -20 44 4 68 24 24 38 25 68 4z m-114
-20 c40 -39 -4 -105 -56 -85 -32 12 -42 48 -22 78 17 27 55 30 78 7z"/>
<path d="M4652 1170 c0 -14 2 -19 5 -12 2 6 2 18 0 25 -3 6 -5 1 -5 -13z"/>
<path d="M4640 1078 c0 -49 5 -47 13 5 3 20 2 37 -4 37 -5 0 -9 -19 -9 -42z"/>
<path d="M5750 895 c1 -15 26 -45 37 -45 6 0 17 8 24 17 12 15 12 16 -5 10
-14 -6 -17 -4 -12 9 5 13 4 14 -7 6 -10 -9 -17 -8 -25 0 -7 7 -12 8 -12 3z"/>
<path d="M5746 693 c-2 -10 -12 -57 -22 -105 l-17 -88 -156 -3 c-123 -2 -112
-3 54 -3 116 0 189 1 163 3 -27 2 -48 5 -48 6 0 1 9 47 19 102 11 55 18 101
16 103 -2 2 -6 -5 -9 -15z"/>
<path d="M2432 615 c0 -16 2 -22 5 -12 2 9 2 23 0 30 -3 6 -5 -1 -5 -18z"/>
</g>
</svg>
